<svg width="50" height="50" viewBox="0 0 50 50" fill="none" xmlns="http://www.w3.org/2000/svg">
<g clip-path="url(#clip0)">
<path d="M25 1.04163C11.1875 1.04163 -7.62939e-06 12.0416 -7.62939e-06 25.6083C-7.62939e-06 36.4645 7.16249 45.6708 17.0937 48.9166C18.3437 49.1479 18.8021 48.3875 18.8021 47.7354C18.8021 47.152 18.7812 45.6062 18.7708 43.5583C11.8167 45.0395 10.35 40.2625 10.35 40.2625C9.21249 37.427 7.56874 36.6687 7.56874 36.6687C5.30416 35.1458 7.74374 35.177 7.74374 35.177C10.2542 35.3479 11.5729 37.7083 11.5729 37.7083C13.8021 41.4645 17.425 40.3791 18.8542 39.752C19.0792 38.1625 19.7229 37.0812 20.4375 36.4666C14.8854 35.852 9.04999 33.7395 9.04999 24.327C9.04999 21.6458 10.0187 19.4541 11.6229 17.7354C11.3417 17.1145 10.4979 14.6166 11.8417 11.2333C11.8417 11.2333 13.9354 10.575 18.7167 13.752C20.7167 13.2062 22.8417 12.9354 24.9667 12.9229C27.0917 12.9354 29.2167 13.2062 31.2167 13.752C35.9667 10.575 38.0604 11.2333 38.0604 11.2333C39.4042 14.6166 38.5604 17.1145 38.3104 17.7354C39.9042 19.4541 40.8729 21.6458 40.8729 24.327C40.8729 33.7645 35.0292 35.8416 29.4667 36.4458C30.3417 37.1833 31.1542 38.6895 31.1542 40.9916C31.1542 44.2791 31.1229 46.9208 31.1229 47.7187C31.1229 48.3625 31.5604 49.1312 32.8417 48.8854C42.8437 45.6604 50 36.4479 50 25.6083C50 12.0416 38.8062 1.04163 25 1.04163Z" fill="#FFE5CF"/>
</g>
<defs>
<clipPath id="clip0">
<rect width="50" height="50" fill="white"/>
</clipPath>
</defs>
</svg>
