<svg width="50" height="50" viewBox="0 0 50 50" fill="none" xmlns="http://www.w3.org/2000/svg">
<path d="M42.7431 0H7.25692C3.69863 0 0.804896 2.89373 0.804896 6.45203V35.4862C0.804896 39.0445 3.69863 41.9382 7.25692 41.9382V48.387C7.25692 49.0128 7.61824 49.5806 8.18602 49.8484C8.40216 49.9484 8.63766 50 8.86993 50C9.24092 50 9.60869 49.8742 9.90226 49.6258L19.1319 41.9382H42.7431C46.3014 41.9382 49.1951 39.0445 49.1951 35.4862V6.45203C49.1951 2.89373 46.3014 0 42.7431 0ZM12.0959 19.3561C14.7639 19.3561 16.935 21.5272 16.935 24.1951C16.935 26.863 14.7639 29.0341 12.0959 29.0341H8.86993C7.97955 29.0341 7.25692 28.3115 7.25692 27.4211C7.25692 26.5307 7.97955 25.8081 8.86993 25.8081H12.0959C12.9863 25.8081 13.709 25.0855 13.709 24.1951C13.709 23.3047 12.9863 22.5821 12.0959 22.5821C9.42803 22.5821 7.25692 20.411 7.25692 17.7431C7.25692 15.0752 9.42803 12.9041 12.0959 12.9041H15.322C16.2123 12.9041 16.935 13.6267 16.935 14.5171C16.935 15.4074 16.2123 16.1301 15.322 16.1301H12.0959C11.2056 16.1301 10.4829 16.8527 10.4829 17.7431C10.4829 18.6335 11.2056 19.3561 12.0959 19.3561ZM29.839 27.4211C29.839 28.3115 29.1164 29.0341 28.226 29.0341C27.3356 29.0341 26.613 28.3115 26.613 27.4211V21.3498L26.442 21.6917C25.8936 22.7853 24.1032 22.7853 23.5547 21.6917L23.387 21.3498V27.4211C23.387 28.3115 22.6644 29.0341 21.774 29.0341C20.8836 29.0341 20.161 28.3115 20.161 27.4211V14.5171C20.161 13.7686 20.6771 13.117 21.403 12.946C22.1224 12.7718 22.8805 13.1267 23.216 13.7944L25 17.3624L26.784 13.7977C27.1163 13.1234 27.855 12.775 28.597 12.946C29.3261 13.117 29.839 13.7686 29.839 14.5171V27.4211ZM37.9041 19.3561C40.572 19.3561 42.7431 21.5272 42.7431 24.1951C42.7431 26.863 40.572 29.0341 37.9041 29.0341H34.678C33.7877 29.0341 33.065 28.3115 33.065 27.4211C33.065 26.5307 33.7877 25.8081 34.678 25.8081H37.9041C38.7912 25.8081 39.5171 25.0855 39.5171 24.1951C39.5171 23.3047 38.7912 22.5821 37.9041 22.5821C35.2361 22.5821 33.065 20.411 33.065 17.7431C33.065 15.0752 35.2361 12.9041 37.9041 12.9041H41.1301C42.0204 12.9041 42.7431 13.6267 42.7431 14.5171C42.7431 15.4074 42.0204 16.1301 41.1301 16.1301H37.9041C37.0169 16.1301 36.291 16.8527 36.291 17.7431C36.291 18.6335 37.0169 19.3561 37.9041 19.3561Z" fill="#FFE5CF"/>
</svg>
